<svg xmlns="http://www.w3.org/2000/svg" viewBox="0 0 110.18 107.46">
    <defs>
        <style>
            .icon {
                fill: black;
            }
            @media (prefers-color-scheme: dark) {
                .icon {
                    fill: white;
                }
            }
        </style>
    </defs>
    <path class="icon" d="M55.09,0A55.1,55.1,0,0,0,37.68,107.37c2.75.5,3.76-1.2,3.76-2.66,0-1.3,0-4.77-.08-9.37C26,98.67,22.81,88,22.81,88c-2.51-6.37-6.12-8.06-6.12-8.06-5-3.42.38-3.35.38-3.35,5.53.39,8.44,5.68,8.44,5.68,4.91,8.42,12.89,6,16,4.58A11.76,11.76,0,0,1,45,79.44c-12.24-1.39-25.1-6.12-25.1-27.23a21.31,21.31,0,0,1,5.67-14.78c-.56-1.39-2.45-7,.54-14.58,0,0,4.16-1.32,13.53,4.59l.24-.9c-7.26-4-11.52-8.68-10.51-12.45C31,8.18,44.89,6.75,60.46,10.91c7.95,2.13,14.8,5.3,19.39,8.68a39.37,39.37,0,0,1,5.22-3.65,2.45,2.45,0,1,1,2.45,4.24c-.75.44-1.49.9-2.21,1.39l-1,.71-.14.11c11.77,7.45,19.08,15.86,16.85,20-1.3,2.39-5.59,2.85-11.44,1.67l-.37,1.39a22.43,22.43,0,0,1,1,6.8C90.23,73.38,77.35,78,65.08,79.4c2,1.7,3.74,5.06,3.74,10.2,0,7.36-.07,13.31-.07,15.11a3,3,0,0,0,.41,1.52l8.58-14.8a5.69,5.69,0,0,1-.84-1.53,5.35,5.35,0,0,1,1-5.4c1.43-1.48,3.64-1.33,5.2-2.56a5.3,5.3,0,0,0,2-4.43,1.25,1.25,0,0,1,1.27-1.36h0C88.89,75,90,78.71,90.39,80.37a16.09,16.09,0,0,1,.27,6.26c-.34,2.25-1.15,4.63-3.07,6a7.68,7.68,0,0,1-4.68,1.29l-7.09,12.23A55.1,55.1,0,0,0,55.09,0Z"/>
</svg>