<?xml version="1.0" standalone="no"?>
<!DOCTYPE svg PUBLIC "-//W3C//DTD SVG 20010904//EN"
 "http://www.w3.org/TR/2001/REC-SVG-20010904/DTD/svg10.dtd">
<svg version="1.0" xmlns="http://www.w3.org/2000/svg"
 width="301.000000pt" height="301.000000pt" viewBox="0 0 301.000000 301.000000"
 preserveAspectRatio="xMidYMid meet">
<metadata>
Created by potrace 1.11, written by Peter Selinger 2001-2013
</metadata>
<g transform="translate(0.000000,301.000000) scale(0.100000,-0.100000)"
fill="#000000" stroke="none">
<path d="M1358 3005 c-2 -2 -23 -5 -48 -8 -159 -18 -329 -70 -484 -149 -293
-150 -527 -387 -670 -683 -200 -409 -201 -892 -4 -1305 100 -210 268 -414 449
-548 35 -25 66 -49 69 -52 5 -5 13 -10 110 -65 251 -142 584 -211 875 -181
454 47 859 296 1111 681 99 151 185 364 210 515 2 14 6 34 9 45 24 112 25 369
2 495 -25 131 -26 135 -53 223 -69 217 -206 439 -375 606 -53 52 -211 181
-222 181 -4 0 -23 12 -44 26 -138 95 -364 177 -568 208 -76 11 -358 20 -367
11z"/>
</g>
</svg>
